<?xml version="1.0" encoding="UTF-8"?>
<svg width="112px" height="122px" viewBox="0 0 112 122" version="1.1" xmlns="http://www.w3.org/2000/svg" xmlns:xlink="http://www.w3.org/1999/xlink">
    <title>finger</title>
    <g id="finger" stroke="none" stroke-width="1" fill="none" fill-rule="evenodd">
        <polygon id="Path" fill="#FFFFFF" points="64.2725531 103.465927 61 107.209992 61 115.052305 64.2725531 119 70 120.237433 77 119 93.9055894 111.85168 108.210787 100.148823 110 95.167047 109.08827 89.5209466 104.079686 86 100.048902 86 103.179317 84.0127796 104.079686 77.601692 103.179317 65 101 53.8553774 96.0358725 39 90 31.5 84.159119 28 77 27 66.1576379 28 60 25.2372151 54.8680526 23.1918542 47.9887681 25 45.4766294 25.2372151 42 23.1918542 29.5956236 9.08150731 20.1793536 2.58080901 10.4296139 2.58080901 4.48208301 6 1 13.1799158 4.48208301 20.6267527 13.3379931 29 23.6749011 41.5 31.6016729 53.8553774 34.4917439 61 29.5956236 61.4091208 17.6737535 61 7.14984091 65 4.48208301 71.370385 7.14984091 77.601692 15.8926328 86 38.6326534 96.7788174 57.3994541 103.465927"></polygon>
        <path d="M65.7528432,100.431876 C65.7528432,100.431876 60.2084481,110.138869 65.2295629,113.197155 C70.2506777,116.257619 84.2674616,108.449323 93.4731988,102.013579 C111.674065,87.8768371 99.330266,84.9231268 94.8318915,86.1889248 C99.226042,83.8670242 106.547646,85.6616905 106.547646,85.6616905 L110,90.4089778 L109.371956,94.1012518 L107.907959,97.6889504 L100.899567,104.12415 L87.9288036,112.775041 L74.4353001,119 L65.7528432,118.78976 L61.2550087,115.202606 L60,107.18407 L62.8243096,101.803339 L65.7528432,100.431876 Z" id="Fill-1" fill="#D0D2D3"></path>
        <path d="M12.5528259,63.5218848 C12.5528259,63.5218848 8.80843066,65.3993773 8.80843066,68.8425242 C8.80843066,72.2851325 9.01678078,75.5187715 20.1457914,81.3618343 C39.4928178,91.89809 63.3129279,97.2181909 63.3129279,97.2181909 C63.3129279,97.2181909 66.1208216,95.1058771 74,94.0895752 C73.5322862,94.401952 71.1137065,94.9238368 67.6812995,98.4709298 C64.2488925,102.018023 62.1691502,104 62.1691502,104 L54.5751108,101.809053 L44.1731776,98.2619604 L33.5639683,93.7761212 L22.6422339,88.7689357 L15.7774198,84.8044426 L9.43240703,79.5882878 L6.51980132,74.4760791 L6,69.6773244 L6.51980132,65.7128314 L9.22459391,63 L12.5528259,63.5218848 Z" id="Fill-3" fill="#D0D2D3"></path>
        <path d="M98.3585298,47 C98.3585298,47 99.8671992,55.5606296 100.622573,66.9755299 C101.376908,78.3898846 97,86 97,86 L102.886616,84.890703 L103.792129,82.8298006 L105,72.3659601 L102.886616,58.8901574 L98.3585298,47 Z" id="Fill-5" fill="#D0D2D3"></path>
        <path d="M28.5842046,62.3100346 C28.5842046,62.3100346 33.5963598,62.5182909 37.7735151,64.4884274 C41.9495924,66.4590992 43.3069388,62.4144304 40.592246,57.85153 C37.8764751,53.2886296 26.9131268,35.9707015 18.0380866,28.1929452 C9.16250745,20.415189 4.25492938,18.4450525 3.83715994,13.3639205 C3.41939049,8.28225323 6.86504505,6 6.86504505,6 C6.86504505,6 4.04577513,6 2.68842873,8.80048479 C1.33108234,11.6004342 0.600120576,11.8081551 1.22704427,14.5042441 C1.8534289,17.2003331 2.68842873,18.7560985 4.3595065,20.8300954 C6.03004522,22.9040924 11.1467775,27.7780388 13.1305086,30.3708027 C15.1142396,32.9635665 20.3355491,37.318746 20.3355491,37.318746 L26.4958964,46.2373612 L30.6725127,54.1184426 L33.1780513,61.0658505 L28.5842046,62.3100346 Z" id="Fill-7" fill="#D0D2D3"></path>
        <g id="Group-11" fill="#231F20">
            <path d="M32.389598,61.4093586 C32.389598,61.4093586 32.3890571,61.4055569 32.3814857,61.3773155 C32.3744551,61.3496172 32.3614755,61.3045397 32.3441694,61.2420828 C32.3090163,61.1166259 32.2533122,60.923281 32.1721898,60.66585 C32.0094041,60.1509879 31.7487306,59.3792379 31.3609653,58.3821 C30.5848939,56.3883672 29.3009959,53.4930828 27.2853735,49.9477034 C23.2535878,42.8564017 16.2954449,33.1641776 4.59380204,22.8680224 L4.53755714,22.8186 L4.48293469,22.7604879 C1.37756735,19.4448414 -0.00475918367,15.9782121 9.53562705e-05,12.7739017 C0.00118979592,9.0216 1.85835306,5.81131552 4.40181224,3.64704828 C6.40066939,1.93790172 9.55362857,0.406893103 13.6411184,0.406893103 C19.4040571,0.408522414 26.7748429,3.44012586 35.2591694,12.5952207 C44.6115061,22.419419 52.3819551,34.4562207 52.4122408,34.4980397 C52.8843735,35.2296 52.6777816,36.2077293 51.9498429,36.6818586 C51.2219041,37.1559879 50.2489755,36.9479793 49.7757612,36.2169621 C49.7757612,36.216419 49.661649,36.0399103 49.4355878,35.6982983 C49.2089857,35.3566862 48.8736796,34.8559448 48.4431898,34.2248586 C47.5805878,32.9616 46.3340061,31.1753328 44.8007918,29.0881862 C41.7376082,24.9149793 37.5268122,19.5409707 32.9742204,14.7611172 C24.8181694,5.97859138 18.2559041,3.56232414 13.6411184,3.56341034 C10.3497102,3.56341034 7.92090408,4.78810862 6.43690408,6.05136724 C4.46238367,7.74259138 3.14116939,10.1018328 3.14279184,12.7739017 C3.1482,15.0478759 4.07624082,17.6792121 6.72624082,20.5489707 C30.6270776,41.5985741 35.3846388,60.4073328 35.4387204,60.6435828 C35.649098,61.4886517 35.1374857,62.345669 34.2948939,62.5574793 C34.1672612,62.5895224 34.0390878,62.6047293 33.9130776,62.6047293 C33.2089347,62.6047293 32.5680673,62.1262552 32.389598,61.4093586" id="Fill-9"></path>
        </g>
        <path d="M67.2035995,33.3392121 C64.8610079,29.9654373 62.4497185,27.9206452 60.1578574,26.7006476 C57.8659964,25.4832953 55.6734827,25.0764531 53.7018587,25.0743369 C49.706823,25.0632268 46.6249384,26.8276205 46.3670578,26.9910981 L46.3533182,26.9995629 C45.6362199,27.4519037 44.6876631,27.2355208 44.2358436,26.517066 C43.7845526,25.7986113 44,24.8494891 44.7183129,24.3976774 C44.8535945,24.3225518 48.4945728,22.0132328 53.7018587,22 C56.0999369,21.9978903 58.8314633,22.5116013 61.5994523,23.9860737 C64.3684982,25.4573717 67.1533974,27.8751466 69.7258621,31.5859285 C70.2088598,32.2826921 70.0371156,33.2408081 69.3406266,33.7248921 C69.073234,33.9105899 68.7683218,34 68.4655235,34 C67.9793551,33.9994709 67.5016419,33.7688036 67.2035995,33.3392121" id="Fill-12" fill="#231F20"></path>
        <g id="Group-16" transform="translate(3.000000, 25.000000)" fill="#231F20">
            <path d="M58.3642119,93.53613 C56.475598,91.5163744 55.5890287,89.0320967 55.5809347,86.8253467 C55.5820139,84.2731689 55.7665584,81.5792633 55.8922861,80.0326522 C50.8459099,78.5340022 31.5442762,72.5609578 17.1379297,64.5827078 C11.5670584,61.48733 6.71224158,58.1133467 3.6219297,54.3955522 C1.8639,52.2685578 0.658424752,49.9852856 0.401573267,47.5279522 C0.350310891,47.0310967 0.324898744,46.5477133 0.324898744,46.0772633 C0.317934653,43.6226244 1.03830594,41.5074856 2.28317228,39.8568689 C3.52534059,38.20248 5.23156832,37.0244689 7.12180099,36.1843411 C10.9109,34.5110911 15.5088653,34.0853689 19.6303604,34.0772856 C25.3825386,34.0794411 30.1995832,34.9632189 30.2562416,34.9713022 C31.1077366,35.12758 31.6716228,35.9434578 31.5162168,36.7938244 C31.3591921,37.64473 30.5427713,38.2078689 29.6907366,38.05213 C29.690197,38.05213 29.4220139,38.0025522 28.9066921,37.9238744 C28.3908307,37.8446578 27.6407812,37.7384967 26.7196772,37.6328744 C24.8769297,37.4210911 22.3456475,37.2087689 19.6303604,37.2087689 C16.716499,37.2066133 13.5873356,37.4571967 10.9049644,38.1755356 C8.20910297,38.8901022 6.03126139,40.0670356 4.7934099,41.7348967 C3.96349901,42.8525522 3.46760297,44.2046244 3.46004851,46.0772633 C3.46004851,46.4350856 3.47947426,46.8123078 3.51994455,47.2078522 C3.66347921,48.6213578 4.32395446,50.1367133 5.50460792,51.7205078 C6.68040495,53.3010689 8.3623505,54.92528 10.4133851,56.52093 C14.5159941,59.7181578 20.0782317,62.7984467 25.9377911,65.5343856 C37.6601475,71.0148856 50.5701723,75.1508578 55.7023455,76.7071689 C57.1695287,77.15283 57.9918851,77.3840133 57.9940436,77.38563 L59.257796,77.7418356 L59.1277515,79.0481022 C59.1277515,79.0507967 59.0257663,80.0655244 58.9221624,81.55663 C58.819098,83.0477356 58.7171129,85.0028244 58.7171129,86.8253467 C58.7095584,88.1747244 59.3203901,89.9934744 60.6483554,91.3908133 C61.9806376,92.7876133 63.9696178,93.8567689 67.0221574,93.8680856 C67.3685832,93.8680856 67.7290386,93.8540744 68.1013653,93.8238967 C69.1158208,93.7484522 70.9537119,93.2963244 73.1579941,92.5316411 C75.3725287,91.7674967 77.9939248,90.6994189 80.7620931,89.4125522 C86.2995089,86.8398967 92.4348059,83.3823856 97.181702,79.7583578 C100.347558,77.3506022 102.887474,74.8458467 104.21544,72.6320911 C104.980598,71.3678578 105.337276,70.2334967 105.334578,69.2882856 L105.334578,69.2629578 L105.334578,69.25218 C105.336737,69.1519467 105.337816,69.0592578 105.337816,68.9741133 C105.317311,66.0845911 104.05194,64.4808578 102.653286,63.3605078 C101.276217,62.2811133 99.7604693,61.8613189 99.6444545,61.8349133 L99.6444545,61.8354522 L97.8481129,61.4129633 L98.5544545,59.7138467 L98.5539149,59.7138467 C98.5582317,59.7036078 98.5663257,59.6815133 98.578197,59.6481022 C98.6024792,59.5802022 98.6407911,59.4664967 98.689895,59.30483 C98.788103,58.97988 98.925702,58.4636244 99.0654594,57.7393578 C99.3471327,56.2919022 99.6385188,54.0177911 99.6385188,50.81248 C99.6385188,44.6901633 98.572801,35.16638 94.3250386,21.52818 C91.9367515,13.8808078 88.4465931,9.41072444 84.7335782,6.79280222 C81.0173257,4.17865222 76.9864842,3.37139667 73.3641228,3.36924111 C68.0403901,3.36169667 63.6890238,5.16589667 63.2638158,5.35558556 C63.2352168,5.36851889 63.2319792,5.37013556 63.2319792,5.37013556 L63.2314396,5.37013556 L63.2319792,5.37013556 C62.4430782,5.72795778 61.5133406,5.37768 61.1561228,4.58982444 C60.7994446,3.80250778 61.1491079,2.87508 61.9380089,2.51779667 C62.0545634,2.47145222 66.9466129,0.24638 73.3641228,0.237215146 C77.4435287,0.235063333 82.1817911,1.16356889 86.5396327,4.23308 C90.9007119,7.29720222 94.7885584,12.4576022 97.319301,20.5980578 C101.646385,34.4879189 102.774697,44.3269522 102.774697,50.81248 C102.774697,54.9764744 102.30794,57.75768 101.927519,59.3312356 C102.235633,59.4638022 102.574504,59.62493 102.93388,59.81893 C104.316346,60.5674467 106.023113,61.8230578 107.192435,63.8789189 C107.970004,65.2450022 108.477232,66.9586689 108.474009,68.9741133 C108.474009,69.0888967 108.471836,69.1972133 108.469677,69.3022967 C108.446474,71.8814189 107.124984,74.2886356 105.196979,76.6020856 C103.250088,78.9214633 100.612504,81.1794078 97.6198604,83.3301133 C91.6351129,87.6255967 84.2220337,91.4743411 78.1320634,93.9866411 C74.0488802,95.6588133 70.6526129,96.7441356 68.3549792,96.9451411 C67.8990139,96.9817856 67.4549198,97.0001078 67.0221574,97.0001078 L66.9795287,97.0001078 C63.1747812,97.0001078 60.2420337,95.5456467 58.3642119,93.53613" id="Fill-14"></path>
        </g>
        <path d="M101,86.5132394 C97.2082244,85.5763017 94.8318915,86.1889248 94.8318915,86.1889248 C94.8318915,86.1889248 100.721612,83.1442148 103.773315,84.2576546 C105,84.5639223 105.806617,86.6472279 104.833518,86.5132394 L101,86.5132394 Z" id="Fill-17" fill="#231F20"></path>
        <path d="M62.0891464,110.673784 C63.1225664,100.517115 75,94 75,94 C75,94 66.564909,96.877562 61.5164341,103.335197 C61.2576653,104.097724 61,107.209992 61,107.209992 C61,107.209992 61.5594654,114.32982 61.7597492,112.685269" id="Fill-19" fill="#231F20"></path>
        <path d="M47,27 C47,27 49.3708096,30.9960334 49.6610414,36.3084072 C49.9033176,36.7633804 53.0474127,42.5813961 52.999457,35.549422 C52.9510018,28.517448 47,27 47,27" id="Fill-21" fill="#D0D2D3"></path>
        <path d="M67.5200229,29 C67.9944576,31.4318955 67,33.2401887 67,33.2401887 C67,33.2401887 70.0279007,37.0955579 69.9998057,33.3933992 C69.9711806,29.6912404 67.7384219,29.2485186 67.5200229,29" id="Fill-23" fill="#D0D2D3"></path>
        <path d="M72.0049016,40.88689 C72.089204,39.6068489 75.4436295,39.5215813 76.7016021,41.9106146 C77.9600796,44.3001616 74.8570467,46.9460249 74.438059,45.6659839 C74.0180617,44.3859428 74.6051493,44.3859428 73.7661643,43.1059018 C72.928189,41.8258607 71.9211041,42.166931 72.0049016,40.88689" id="Fill-25" fill="#D0D2D3"></path>
        <path d="M86.0039912,39.73915 C86.0711388,38.672125 88.7550795,38.6014748 89.7613122,40.5926661 C90.768035,42.5833379 88.2855369,44.7885576 87.9502894,43.7215326 C87.6145517,42.6545076 88.0840943,42.6545076 87.4135993,41.588002 C86.7416338,40.520977 85.9363536,40.806175 86.0039912,39.73915" id="Fill-27" fill="#D0D2D3"></path>
    </g>
</svg>