<?xml version="1.0" encoding="UTF-8"?>
<svg width="82px" height="76px" viewBox="0 0 82 76" version="1.1" xmlns="http://www.w3.org/2000/svg" xmlns:xlink="http://www.w3.org/1999/xlink">
    <title>signup-right</title>
    <g id="🗞-Feed" stroke="none" stroke-width="1" fill="none" fill-rule="evenodd">
        <g id="iPhone-7-Copy-20" transform="translate(-248.000000, -116.000000)">
            <g id="signup-right" transform="translate(248.000000, 116.000000)">
                <g id="Group-7-Copy-2">
                    <line x1="15.4900211" y1="38.1923631" x2="15.3448753" y2="69.4439279" id="Path-6" stroke="#D5D5D5" stroke-linecap="round" stroke-linejoin="round"></line>
                    <g id="Group-12-Copy-2">
                        <ellipse id="Oval" fill="#FF4F64" fill-rule="nonzero" cx="15.3448753" cy="18.0982264" rx="15.0777499" ry="17.9653366"></ellipse>
                        <ellipse id="Oval" fill="#FFFFFF" cx="6.5" cy="19" rx="2.5" ry="7"></ellipse>
                        <path d="M15.7294603,35.1224441 L17.6862711,38.1748749 C17.8018932,38.3573583 17.8187167,38.5919204 17.7304785,38.7912363 C17.6422402,38.9905521 17.4621593,39.1247619 17.257278,39.1439006 L13.8178066,39.4491437 C13.6119807,39.4662586 13.4132099,39.3645993 13.2959909,39.1822663 C13.1787719,38.9999333 13.1608059,38.7644605 13.2488262,38.5641003 L14.7314867,35.2145016 C14.8189526,35.0135745 14.9997542,34.8780481 15.2056804,34.8590525 C15.4116065,34.840057 15.6113145,34.9404836 15.7294603,35.1224441 Z" id="Path" fill="#FF4F64" fill-rule="nonzero"></path>
                    </g>
                </g>
                <g id="Group-7-Copy-3" transform="translate(51.000000, 6.000000)">
                    <line x1="15.4900211" y1="38.1923631" x2="15.3448753" y2="69.4439279" id="Path-6" stroke="#D5D5D5" stroke-linecap="round" stroke-linejoin="round"></line>
                    <g id="Group-12-Copy-2">
                        <ellipse id="Oval" fill="#F6D11A" fill-rule="nonzero" cx="15.3448753" cy="18.0982264" rx="15.0777499" ry="17.9653366"></ellipse>
                        <ellipse id="Oval" fill="#FFFFFF" cx="6.5" cy="19" rx="2.5" ry="7"></ellipse>
                        <path d="M15.7294603,35.1224441 L17.6862711,38.1748749 C17.8018932,38.3573583 17.8187167,38.5919204 17.7304785,38.7912363 C17.6422402,38.9905521 17.4621593,39.1247619 17.257278,39.1439006 L13.8178066,39.4491437 C13.6119807,39.4662586 13.4132099,39.3645993 13.2959909,39.1822663 C13.1787719,38.9999333 13.1608059,38.7644605 13.2488262,38.5641003 L14.7314867,35.2145016 C14.8189526,35.0135745 14.9997542,34.8780481 15.2056804,34.8590525 C15.4116065,34.840057 15.6113145,34.9404836 15.7294603,35.1224441 Z" id="Path" fill="#F6D11A" fill-rule="nonzero"></path>
                    </g>
                </g>
            </g>
        </g>
    </g>
</svg>